<svg xmlns="http://www.w3.org/2000/svg" xmlns:xlink="http://www.w3.org/1999/xlink" version="1.1" x="0px" y="0px" viewBox="0 0 100 125" enable-background="new 0 0 100 100" xml:space="preserve"><g><path d="M65.295,10.732L3.325,46.622v24.473l31.38,18.173l61.97-35.889V28.905L65.295,10.732z M65.295,12.559l29.017,16.803   L65.295,46.165L36.281,29.362L65.295,12.559z M63.72,47.078L34.706,63.881L5.691,47.078l29.014-16.803L63.72,47.078z M4.904,48.448   l29.011,16.801v21.735l-29.011-16.8V48.448z M35.495,86.984V65.249l59.603-34.518v21.737L35.495,86.984z"/><path d="M76.18,29.362v-4.857c0-3.721-4.781-6.635-10.885-6.635c-6.102,0-10.884,2.914-10.884,6.635v4.857   c0,3.721,4.782,6.635,10.884,6.635C71.398,35.997,76.18,33.083,76.18,29.362z M65.295,19.448c5.045,0,9.306,2.317,9.306,5.057   c0,2.741-4.261,5.056-9.306,5.056c-5.043,0-9.304-2.315-9.304-5.056C55.991,21.765,60.252,19.448,65.295,19.448z M55.991,29.362   V27.98c1.892,1.906,5.31,3.16,9.304,3.16c3.995,0,7.413-1.254,9.306-3.16v1.381c0,2.739-4.261,5.056-9.306,5.056   C60.252,34.418,55.991,32.101,55.991,29.362z"/><path d="M23.821,47.076c0,3.721,4.781,6.637,10.884,6.637c6.103,0,10.884-2.916,10.884-6.637v-4.073   c0-0.002,0.001-0.005,0.001-0.007c0-1.855-1.189-3.566-3.351-4.816c-2.025-1.174-4.7-1.82-7.533-1.82s-5.509,0.646-7.534,1.82   c-2.16,1.25-3.35,2.961-3.351,4.816l0,0V47.076z M34.705,52.133c-5.043,0-9.304-2.315-9.304-5.057v-0.613   c0.487,0.489,1.073,0.946,1.771,1.35c2.025,1.172,4.701,1.818,7.534,1.818l0,0c2.833,0,5.509-0.646,7.534-1.818   c0.697-0.404,1.282-0.861,1.77-1.35v0.613C44.01,49.817,39.748,52.133,34.705,52.133z M27.963,39.546   c1.788-1.036,4.182-1.606,6.742-1.606c2.559,0,4.954,0.57,6.742,1.606c1.653,0.957,2.563,2.182,2.563,3.45l0,0v0.005   c-0.003,1.267-0.912,2.49-2.563,3.445c-1.788,1.036-4.183,1.606-6.742,1.606c-2.56,0-4.955-0.571-6.742-1.606   c-1.653-0.957-2.563-2.183-2.563-3.45C25.401,41.728,26.311,40.503,27.963,39.546z"/></g><text x="0" y="115" fill="#000000" font-size="5px" font-weight="bold" font-family="'Helvetica Neue', Helvetica, Arial-Unicode, Arial, Sans-serif">Created by Bakunetsu Kaito</text><text x="0" y="120" fill="#000000" font-size="5px" font-weight="bold" font-family="'Helvetica Neue', Helvetica, Arial-Unicode, Arial, Sans-serif">from the Noun Project</text></svg>